<svg height="1054" width="720" xmlns="http://www.w3.org/2000/svg">
<rect height="1054" fill="#555" width="720"></rect>
<text fill="#7f7" font-family="Courier New" font-size="12" xml:space="preserve">
<tspan x="10" y="26">13 megabytes</tspan>
<tspan x="10" y="42">└─┬ node-etcd@5.0.3 </tspan>
<tspan x="10" y="58">  ├─┬ deasync@0.1.7 </tspan>
<tspan x="10" y="74">  │ ├── bindings@1.2.1 </tspan>
<tspan x="10" y="90">  │ └── nan@2.6.1 </tspan>
<tspan x="10" y="106">  ├─┬ request@2.60.0 </tspan>
<tspan x="10" y="122">  │ ├── aws-sign2@0.5.0 </tspan>
<tspan x="10" y="138">  │ ├─┬ bl@1.0.3 </tspan>
<tspan x="10" y="154">  │ │ └─┬ readable-stream@2.0.6 </tspan>
<tspan x="10" y="170">  │ │   ├── core-util-is@1.0.2 </tspan>
<tspan x="10" y="186">  │ │   ├── inherits@2.0.3 </tspan>
<tspan x="10" y="202">  │ │   ├── isarray@1.0.0 </tspan>
<tspan x="10" y="218">  │ │   ├── process-nextick-args@1.0.7 </tspan>
<tspan x="10" y="234">  │ │   ├── string_decoder@0.10.31 </tspan>
<tspan x="10" y="250">  │ │   └── util-deprecate@1.0.2 </tspan>
<tspan x="10" y="266">  │ ├── caseless@0.11.0 </tspan>
<tspan x="10" y="282">  │ ├─┬ combined-stream@1.0.5 </tspan>
<tspan x="10" y="298">  │ │ └── delayed-stream@1.0.0 </tspan>
<tspan x="10" y="314">  │ ├── extend@3.0.0 </tspan>
<tspan x="10" y="330">  │ ├── forever-agent@0.6.1 </tspan>
<tspan x="10" y="346">  │ ├─┬ form-data@1.0.1 </tspan>
<tspan x="10" y="362">  │ │ └─┬ async@2.3.0 </tspan>
<tspan x="10" y="378">  │ │   └── lodash@4.17.4 </tspan>
<tspan x="10" y="394">  │ ├─┬ har-validator@1.8.0 </tspan>
<tspan x="10" y="410">  │ │ ├── bluebird@2.11.0 </tspan>
<tspan x="10" y="426">  │ │ ├─┬ chalk@1.1.3 </tspan>
<tspan x="10" y="442">  │ │ │ ├── ansi-styles@2.2.1 </tspan>
<tspan x="10" y="458">  │ │ │ ├── escape-string-regexp@1.0.5 </tspan>
<tspan x="10" y="474">  │ │ │ ├─┬ has-ansi@2.0.0 </tspan>
<tspan x="10" y="490">  │ │ │ │ └── ansi-regex@2.1.1 </tspan>
<tspan x="10" y="506">  │ │ │ ├── strip-ansi@3.0.1 </tspan>
<tspan x="10" y="522">  │ │ │ └── supports-color@2.0.0 </tspan>
<tspan x="10" y="538">  │ │ ├─┬ commander@2.9.0 </tspan>
<tspan x="10" y="554">  │ │ │ └── graceful-readlink@1.0.1 </tspan>
<tspan x="10" y="570">  │ │ └─┬ is-my-json-valid@2.16.0 </tspan>
<tspan x="10" y="586">  │ │   ├── generate-function@2.0.0 </tspan>
<tspan x="10" y="602">  │ │   ├─┬ generate-object-property@1.2.0 </tspan>
<tspan x="10" y="618">  │ │   │ └── is-property@1.0.2 </tspan>
<tspan x="10" y="634">  │ │   ├── jsonpointer@4.0.1 </tspan>
<tspan x="10" y="650">  │ │   └── xtend@4.0.1 </tspan>
<tspan x="10" y="666">  │ ├─┬ hawk@3.1.3 </tspan>
<tspan x="10" y="682">  │ │ ├── boom@2.10.1 </tspan>
<tspan x="10" y="698">  │ │ ├── cryptiles@2.0.5 </tspan>
<tspan x="10" y="714">  │ │ ├── hoek@2.16.3 </tspan>
<tspan x="10" y="730">  │ │ └── sntp@1.0.9 </tspan>
<tspan x="10" y="746">  │ ├─┬ http-signature@0.11.0 </tspan>
<tspan x="10" y="762">  │ │ ├── asn1@0.1.11 </tspan>
<tspan x="10" y="778">  │ │ ├── assert-plus@0.1.5 </tspan>
<tspan x="10" y="794">  │ │ └── ctype@0.5.3 </tspan>
<tspan x="10" y="810">  │ ├── isstream@0.1.2 </tspan>
<tspan x="10" y="826">  │ ├── json-stringify-safe@5.0.1 </tspan>
<tspan x="10" y="842">  │ ├─┬ mime-types@2.1.15 </tspan>
<tspan x="10" y="858">  │ │ └── mime-db@1.27.0 </tspan>
<tspan x="10" y="874">  │ ├── node-uuid@1.4.8 </tspan>
<tspan x="10" y="890">  │ ├── oauth-sign@0.8.2 </tspan>
<tspan x="10" y="906">  │ ├── qs@4.0.0 </tspan>
<tspan x="10" y="922">  │ ├── stringstream@0.0.5 </tspan>
<tspan x="10" y="938">  │ ├─┬ tough-cookie@2.3.2 </tspan>
<tspan x="10" y="954">  │ │ └── punycode@1.4.1 </tspan>
<tspan x="10" y="970">  │ └── tunnel-agent@0.4.3 </tspan>
<tspan x="10" y="986">  ├── underscore@1.8.2 </tspan>
<tspan x="10" y="1002">  └─┬ url-parse@1.0.5 </tspan>
<tspan x="10" y="1018">    ├── querystringify@0.0.4 </tspan>
<tspan x="10" y="1034">    └── requires-port@1.0.0</tspan>
</text>
</svg>
